<?xml version="1.0" standalone="no"?><!DOCTYPE svg PUBLIC "-//W3C//DTD SVG 1.1//EN" "http://www.w3.org/Graphics/SVG/1.1/DTD/svg11.dtd"><svg t="1770653464589" class="icon" viewBox="0 0 1024 1024" version="1.1" xmlns="http://www.w3.org/2000/svg" p-id="1620" xmlns:xlink="http://www.w3.org/1999/xlink" width="200" height="200"><path d="M512 75.09333333C297.4302811 75.09333333 123.6385189 161.98921443 123.6385189 269.27407445s173.79176334 194.18074112 388.3614811 194.18073998 388.3614811-86.8958811 388.3614811-194.18073998-173.79176334-194.18074112-388.3614811-194.18074112M123.6385189 366.36444445v145.63555555c0 107.28485888 173.79176334 194.18074112 388.3614811 194.18074112s388.3614811-86.8958811 388.3614811-194.18074112V366.36444445c0 107.28485888-173.79176334 194.18074112-388.3614811 194.18074112s-388.3614811-86.8958811-388.3614811-194.18074112m0 242.72592554v145.63555556c0 107.28485888 173.79176334 194.18074112 388.3614811 194.18074112s388.3614811-86.8958811 388.3614811-194.18074112v-145.63555556c0 107.28485888-173.79176334 194.18074112-388.3614811 194.18074112s-388.3614811-86.8958811-388.3614811-194.18074112z" fill="#FFCA28" p-id="1621"></path></svg>