<?xml version="1.0" standalone="no"?><!DOCTYPE svg PUBLIC "-//W3C//DTD SVG 1.1//EN" "http://www.w3.org/Graphics/SVG/1.1/DTD/svg11.dtd"><svg t="1770653451414" class="icon" viewBox="0 0 1024 1024" version="1.1" xmlns="http://www.w3.org/2000/svg" p-id="1167" xmlns:xlink="http://www.w3.org/1999/xlink" width="200" height="200"><path d="M699.49999971 392.00000029h-374.99999942a15.00000029 15.00000029 0 1 0 0 29.99999971h374.99999942a15.00000029 15.00000029 0 1 0 0-29.99999971zM324.50000029 302.00000029h149.99999942a15.00000029 15.00000029 0 1 0 0-30.00000058h-149.99999942a15.00000029 15.00000029 0 1 0 0 30.00000058zM699.49999971 512h-374.99999942a15.00000029 15.00000029 0 1 0 0 29.99999971h374.99999942a15.00000029 15.00000029 0 1 0 0-29.99999971zM699.49999971 631.99999971h-374.99999942a15.00000029 15.00000029 0 1 0 0 30.00000058h374.99999942a15.00000029 15.00000029 0 1 0 0-30.00000058zM699.49999971 752.00000029h-374.99999942a15.00000029 15.00000029 0 1 0 0 29.99999971h374.99999942a15.00000029 15.00000029 0 1 0 0-29.99999971z" fill="" p-id="1168"></path><path d="M645.71000029 62H159.49999971v900h705.00000058V280.79L645.71000029 62z m8.78999942 51.21L813.29000029 271.99999971H654.49999971V113.21zM189.50000029 932.00000029V91.99999971h434.99999971v210.00000058h209.99999971v630h-644.99999942z" fill="" p-id="1169"></path></svg>