<?xml version="1.0" standalone="no"?><!DOCTYPE svg PUBLIC "-//W3C//DTD SVG 1.1//EN" "http://www.w3.org/Graphics/SVG/1.1/DTD/svg11.dtd"><svg t="1770653458836" class="icon" viewBox="0 0 1024 1024" version="1.1" xmlns="http://www.w3.org/2000/svg" p-id="1318" xmlns:xlink="http://www.w3.org/1999/xlink" width="200" height="200"><path d="M890.14518517 238.39999999c-9.6-9.6-21.6-14.40000001-33.6-14.39999999H480.54518517L374.94518517 118.4c-4-4-9.6-8.00000001-15.2-10.4-6.4-2.4-12-4-18.4-3.99999999H128.54518517c-12 0-24.8 4.80000001-33.6 14.39999999S80.54518517 140 80.54518517 151.99999999v712.00000001c0 12 4.80000001 24.8 14.4 33.60000001S116.54518517 912 128.54518517 912h728c12 0 24.8-4.80000001 33.6-14.40000001 9.6-9.6 14.40000001-21.6 14.4-33.59999999V272c0-12-4.80000001-24.8-14.4-33.60000001z" fill="#FFD766" p-id="1319"></path><path d="M906.94518517 877.6c-3.2 9.6-8.8 18.4-17.6 24.8-8.8 6.4-18.4 9.6-28.8 9.6H137.34518517c-14.40000001 0-28.8-6.4-38.4-19.2s-12-28.8-7.2-42.4l139.2-464c3.2-9.6 8.8-18.4 17.6-24.8 8.8-6.4 18.4-9.6 28.8-9.6h724c14.40000001 0 28.8 6.4 38.4 19.2 9.6 12.8 12 28.8 7.2 42.4l-140 464z" fill="#FFAC33" p-id="1320"></path></svg>