<?xml version="1.0" standalone="no"?><!DOCTYPE svg PUBLIC "-//W3C//DTD SVG 1.1//EN" "http://www.w3.org/Graphics/SVG/1.1/DTD/svg11.dtd"><svg t="1770703728469" class="icon" viewBox="0 0 1754 1024" version="1.1" xmlns="http://www.w3.org/2000/svg" p-id="1362" xmlns:xlink="http://www.w3.org/1999/xlink" width="342.578125" height="200"><path d="M1379.13579229 1218.9905014h-1009.44565542c-111.0390223 0-201.88913136-90.85010905-201.88913136-201.88913136v-1009.44565544c0-111.0390223 90.85010905-201.88913136 201.88913136-201.88913137h1009.44565542c111.0390223 0 201.88913136 90.85010905 201.88913135 201.88913137v1009.44565544c0 111.0390223-90.85010905 201.88913136-201.88913135 201.88913136z" fill="#FFCA28" p-id="1363"></path><path d="M874.41296457 436.6701179c0 7.06612013-5.80431191 12.618071-12.61807096 12.61807099h-163.27783518l-11.1039017 48.7057521-1.26180682 5.80431329c-39.87310299 174.63409796-59.30493163 255.89447323-77.72731588 322.26552499-31.54517743 114.31972062-105.73943258 181.19549591-212.74067196 190.53286859-4.54250513 0.2523611-8.83264912 0.75708466-13.37515562 0.75708325-7.06612013 0.2523611-12.87043206-5.29958975-13.12279314-12.1133474v-101.70164963c0-6.56139658 5.29958975-12.11334741 11.86098632-12.61807098 7.57084229-0.5047222 13.6275167-1.00944573 17.66529962-2.01889146 44.92033166-8.32792694 71.9230026-38.10657399 88.07413296-96.65442097 17.66529964-63.8474381 36.8447658-144.60308985 76.21314659-316.96593662l1.26180821-5.55195083 4.79486619-20.44127437H444.89383776c-7.06612013 0-12.618071-5.80431191-12.61807097-12.61807095v-100.94456497c0-7.06612013 5.80431191-12.618071 12.61807097-12.618071h153.18337784c14.63696244-62.83799235 23.72197266-100.69220391 34.06879107-141.07003046 36.8447658-145.10781339 164.28728094-197.85134844 354.82014813-164.79200311 3.53305938 0.75708466 8.32792694 1.5141679 14.1322389 2.52361367 6.81375766 1.26180682 11.35626415 7.82320339 10.09445733 14.88932352l-20.69363685 98.92567352c-1.5141679 6.81375766-7.82320339 11.10390166-14.63696104 9.84209625-5.80431191-1.00944573-11.60862525-2.27125254-17.41293855-3.28069831-126.93779158-21.4507201-186.49508428 4.7948662-203.65566036 72.68008725-8.32792694 32.80698423-16.15113034 64.09979921-26.75030985 110.02957658h134.00391031c7.06612013 0 12.618071 5.80431191 12.61807098 12.61806958v101.19692748z m505.22755128 0c0 7.06612013-5.55195085 12.618071-12.61807097 12.61807099h-36.84476716l-117.6004189 129.96612736 62.83799237 122.64764756h28.01211668c7.06612013 0 12.618071 5.80431191 12.61807096 12.61807096v100.944565c0 7.06612013-5.80431191 12.618071-12.61807096 12.61807097h-105.23470902l-76.46550906-148.89323387-135.01335607 148.89323387h-100.43984282c-7.06612013 0-12.618071-5.80431191-12.61807097-12.61807097v-100.944565c0-7.06612013 5.80431191-12.618071 12.61807097-12.61807096h44.4156081l129.20904412-142.83655947-56.27659441-109.77721549H949.61666544c-7.06612013 0-12.618071-5.80431191-12.61807097-12.61807097v-100.94456501c0-7.06612013 5.80431191-12.618071 12.61807097-12.61807094h131.22793561l69.90411114 136.27516287 123.15237109-136.27516287h92.61663803c7.06612013 0 12.618071 5.80431191 12.61807098 12.61807094v100.94456501z m0 0" fill="#FFFFFF" p-id="1364"></path></svg>