<?xml version="1.0" standalone="no"?><!DOCTYPE svg PUBLIC "-//W3C//DTD SVG 1.1//EN" "http://www.w3.org/Graphics/SVG/1.1/DTD/svg11.dtd"><svg t="1770632097317" class="icon" viewBox="0 0 1232 1024" version="1.1" xmlns="http://www.w3.org/2000/svg" p-id="13414" xmlns:xlink="http://www.w3.org/1999/xlink" width="240.625" height="200"><path d="M1091.71386105 800.01259872a200.80158239 200.80158239 0 0 1 37.48296161 47.02103701l10.20741371 13.88877605c2.34268491 4.35070063 2.67735405 9.87274454 5.18737474 14.22344597v1.00400747a512.46237216 512.46237216 0 0 1-77.81061308-25.26753217c-28.78156034-12.5500986-82.99798781-36.81362329-84.6713344-38.31963571-141.06311181-67.60319938-129.01501655-71.95390003-148.42583647-87.01401852a371.65026202 371.65026202 0 0 1-26.60620962-28.44689116 229.13133909 229.13133909 0 0 1-45.68235958-62.58315963c-4.35070063-12.21542943-8.5340671-24.59819387-12.88476855-36.81362329l0.16733498-1.00400829a32.12825351 32.12825351 0 0 0-4.01603229 11.54609114c-7.36272465 20.74949654-5.85671305 45.51502539-24.59819386 51.37173846-21.41883567 6.86072053-34.13626924-17.9048075-39.32364319-29.45089946a199.69717394 199.69717394 0 0 1 3.01202403-144.07513504 135.54106792 135.54106792 0 0 1 12.38276441-31.2915802 30.83977657 30.83977657 0 0 0-8.53406713-15.56212263 192.60218444 192.60218444 0 0 1-11.71342609-27.61021788 553.37569445 553.37569445 0 0 1-14.89278429-59.5711356c-2.00801574-8.03206297-1.67334658-15.39478765-4.18336568-22.92484726a195.59747496 195.59747496 0 0 0-16.73346586-34.13626927c-8.03206297-15.06011848-31.79358355-45.18035624-18.23947668-71.95390082a31.4087139 31.4087139 0 0 1 34.63827259-18.23947668 143.15479506 143.15479506 0 0 1 63.08516455 33.29959598 140.79537665 140.79537665 0 0 0 16.56613009 16.56613007c9.87274454 1.67334658 20.08015825 3.34669317 29.95290278 5.02003977a170.54747746 170.54747746 0 0 1 48.86171857 22.59017811 417.73422553 417.73422553 0 0 1 138.21842278 175.36671525 425.49855335 425.49855335 0 0 1 15.06011848 50.70239933c7.53005965 25.76953632 16.23146093 52.37574593 25.26753217 77.14127476a202.69246445 202.69246445 0 0 0 12.88476857 34.63827339 47.57324165 47.57324165 0 0 0 14.72544931 9.53807538c12.71743359 8.70140209 27.61021787 15.72945759 39.49097816 25.60220133a606.53791397 606.53791397 0 0 1 60.07313974 59.06913226c7.0280555 8.03206297 11.04408699 18.90881579 17.40280419 27.44288292l-0.33466915 3.8486973c-6.69338635 1.33867743-13.21943773 2.51001989-19.7454891 3.84869651-14.55811435 2.51001989-26.6062096 0.33466915-40.6623206 2.84468904a172.35469202 172.35469202 0 0 1-28.11222201 3.84869731 2.99529052 2.99529052 0 0 0 0.83667328 1.17134245c3.68136234 16.06412676 30.12023777 31.79358355 41.66632889 42.67033635zM765.91329359 293.4906071a27.99508753 27.99508753 0 0 0-15.06011929-11.04408698 10.04007951 10.04007951 0 0 0-3.17935819 0c-13.3867719-4.01603148-29.28356447 8.70140209-17.06813422 18.57414583a138.75389391 138.75389391 0 0 1 19.24348495 45.68236037 35.03987653 35.03987653 0 0 0 16.06412675-53.21241922z m-109.43686325-88.6873659z m112.44888647 13.05210274l-7.02805551-2.67735405-31.4589144-5.52204389c-1.33867743-1.33867743-3.01202402-3.34669317-4.18336644-4.6853706a108.76752414 108.76752414 0 0 0-9.5380746-9.87274376 172.6224272 172.6224272 0 0 0-79.14929051-40.99698977 54.56783013 54.56783013 0 0 0-57.73045565 30.62224111c-17.40280417 34.30360343 4.01603148 69.44388096 15.56212264 88.52003093 1.84068157 3.01202402 3.51402737 5.68937807 4.68537059 8.03206296l4.35070064 7.86472879a147.25449404 147.25449404 0 0 1 12.55009941 26.10420628 58.56712813 58.56712813 0 0 1 2.00801574 10.54208285 94.57754515 94.57754515 0 0 0 2.17535073 13.21943772l4.0160315 18.07214169a372.6040698 372.6040698 0 0 0 12.88476774 49.19638773 244.82732969 244.82732969 0 0 0 14.056111 32.79759182 893.43317489 893.43317489 0 0 1-145.41381246 11.7134261C313.77506283 450.78517985 157.31716339 393.38939417 157.31716339 322.6068366V220.19802885C157.31716339 149.41547129 313.77506283 92.01968559 506.71191723 92.01968559s349.22741888 57.39578568 349.22741888 128.17834326v52.37574672c-11.37875614-10.2074137-23.25951644-20.08015825-35.3076117-29.61823362a178.22813777 178.22813777 0 0 0-51.70640761-25.10019801zM506.71191723 527.59178547a896.07706196 896.07706196 0 0 0 127.17433579-8.86873708 221.01560862 221.01560862 0 0 0 10.2074137 128.01100909 118.17173154 118.17173154 0 0 0 12.71743358 22.08817398 887.91113099 887.91113099 0 0 1-150.09918307 12.5500986C313.77506283 681.37233006 157.31716339 623.97654438 157.31716339 553.19398681v-153.7805454c0 70.78255757 156.45789945 128.17834325 349.39475384 128.17834406z m0 230.5871502c107.09417754 0 202.97693313-17.73747334 267.06610435-45.68235958 4.01603148 4.51803563 8.19939796 9.03607126 12.55009941 13.21943691 3.17935819 3.34669317 6.19138221 7.0280555 9.3707404 10.70941785a160.44046475 160.44046475 0 0 0 21.2515007 21.9208398 70.93315905 70.93315905 0 0 1 8.03206297 7.19538968 165.20950204 165.20950204 0 0 0 30.28757273 23.42685142C847.90727314 857.24104943 694.79606606 911.95948107 506.71191723 911.95948107 313.77506283 911.95948107 157.31716339 854.56369537 157.31716339 783.7811378v-153.61321121c0 70.61522341 156.45789945 128.01100908 349.39475384 128.01100908z" fill="#5a86a0" p-id="13415"></path></svg>