<?xml version="1.0" standalone="no"?><!DOCTYPE svg PUBLIC "-//W3C//DTD SVG 1.1//EN" "http://www.w3.org/Graphics/SVG/1.1/DTD/svg11.dtd"><svg t="1770653467159" class="icon" viewBox="0 0 1024 1024" version="1.1" xmlns="http://www.w3.org/2000/svg" p-id="1770" xmlns:xlink="http://www.w3.org/1999/xlink" width="200" height="200"><path d="M747.82999971 62H276.18499971C157.91000029 62 62 157.895 62 276.17000029v471.65999942C62 866.105 157.91000029 962 276.18499971 962h471.63000058C866.105 962 962 866.105 962 747.845V276.17000029C962 157.895 866.105 62 747.82999971 62z m-112.91999942 614.475c-26.47500029-15.59999971-14.05500029-35.19 3.915-42.64499971 18.91500029-7.89000029 48.17999971-10.95000029 91.81499942-11.88h0.675c-17.53499971-17.28-49.29000029-33.14999971-114.62999942-55.74000058a24.18000029 24.18000029 0 0 1-11.05500058-7.79999942c-13.51500029-16.98000029-20.59499971-33.45000029-29.41499971-62.67000058-20.00999971-66.49499971-24.91499971-74.09999971-66.30000029-119.75999942-51.66-56.95499971-113.28000029-84.43500029-186.35999942-83.37000058a24.345 24.345 0 0 1-11.835-2.86499971 665.61000029 665.61000029 0 0 0-41.13-20.59499971c1.06499971 1.575 2.16 3.13499971 3.24 4.69499942 23.60999971 34.36499971 30.84000029 48.555 24.22499942 68.10000029-2.99999971 8.92500029 26.37 63.69000029 50.13 81.81 7.18499971 5.47499971 10.72500029 14.47499971 9.21000058 23.37000029-9.29999971 54.28500029-9.20999971 123.86999971 0.88499971 164.59499971 1.68000029-4.74000029 3.375-10.08 5.23500029-15.90000029 2.61-8.53499971 11.86499971-41.20499971 13.75499971-46.81499942 1.15499971-3.49499971 2.17500029-6.3 3.39000029-8.73 1.27500029-2.50499971 1.27500029-2.50499971 4.12499971-6.49500029 5.14500029-6.3 5.14500029-6.3 24.57-8.47500029 15.76500029 9.15000029 15.76500029 9.15000029 18.02999971 15.94500029 1.32000029 4.455 12.61500029 76.43999971 67.365 128.88 9.61499971 9.19500029 39.84000029 43.76999971 51.04500029 62.12999971-8.29500029 10.51499971-124.04999971-77.355-141.72000029-104.59499942-4.84499971 13.56000029-9.51000029 24.22500029-14.68499942 32.47499971-15.04500029 23.85-42.13500029 31.34999971-60.60000058 4.83000029-27.78000029-39.645-32.51999971-134.055-21.31499971-212.52000058-34.38-33.49500029-65.43-96.165-55.33499971-126.01499942-1.035 3.06-7.18499971-9.01500029-18.24000029-25.155l-2.32499971-3.39000029c-12.88500029-18.55500029-15.705-22.78500029-20.05500058-30.67499971-9.69000029-17.505-13.03499971-30.49499971-2.62499942-44.685 18.51000029-25.35000029 51.13500029-15.27000029 120.33 21.61499942 84.48000029 0.38999971 157.14 33.77999971 216.56999971 99.27 47.385 52.245 54.9 65.53500029 76.815 138.33 6.04500029 20.05499971 10.60499971 31.5 17.07000029 41.20500058 60.525 21.465 100.71 43.13999971 125.28 65.52 10.72500029 9.69000029 18.37500029 19.485 23.76 29.565 3.13499971 6.00000029 5.67 12.30000029 7.605 18.81a24.27000029 24.27000029 0 0 1-22.48500058 33.31499942 1880.25000029 1880.25000029 0 0 0-55.935 0.675l5.56500058 3.285c1.15499971 0.73500029 92.04000029 114.86999971 98.03999971 141.39-83.36999971-66.24-160.18499971-123.48-186.59999971-139.03499971zM380.645 370.85000029a117.045 117.045 0 0 0-25.38-39.93000029 24.21 24.21 0 0 1 32.22 7.75500029c7.27499971 12.06 4.75499971 25.155-6.84 32.175z" fill="#1296db" p-id="1771"></path></svg>