<?xml version="1.0" standalone="no"?><!DOCTYPE svg PUBLIC "-//W3C//DTD SVG 1.1//EN" "http://www.w3.org/Graphics/SVG/1.1/DTD/svg11.dtd"><svg t="1770703734873" class="icon" viewBox="0 0 1024 1024" version="1.1" xmlns="http://www.w3.org/2000/svg" p-id="1654" xmlns:xlink="http://www.w3.org/1999/xlink" width="200" height="200"><path d="M437.32666666 90.08c-188.51 0-341.33 53.7-341.33 120V814c0 66.25 152.82 119.95 341.33 119.95S778.66666666 880.23 778.66666666 814V210c0-66.22-152.82-119.92-341.34-119.92z" fill="#97E5D9" p-id="1655"></path><path d="M95.99666666 210.03a341.33 119.95 0 1 0 682.66 0 341.33 119.95 0 1 0-682.66 0Z" fill="#97E5D9" p-id="1656"></path><path d="M778.66666666 512c0 66.25-152.82 120-341.34 120S95.99666666 578.25 95.99666666 512" fill="#97E5D9" p-id="1657"></path><path d="M437.33666666 68.75C261.54666666 68.75 74.66666666 118.25 74.66666666 210v604c0 91.75 186.88 141.25 362.67 141.25S799.99666666 905.75 799.99666666 814V210c0-91.75-186.87-141.25-362.66-141.25z m-320 210.15c65.13 47.32 195.18 72.39 320 72.39s254.86-25.07 320-72.39V512c0 41.17-121.75 98.63-320 98.63s-320-57.46-320-98.63z m320-167.48c198.25 0 320 57.46 320 98.62s-121.75 98.59-320 98.59-320-57.42-320-98.59 121.75-98.62 320-98.62z m0 801.16c-198.25 0-320-57.41-320-98.58V580.89c65.13 47.33 195.18 72.4 320 72.4s254.86-25.07 320-72.4V814c0 41.17-121.75 98.58-320 98.58z" fill="#12C3A8" p-id="1658"></path><path d="M761.02666666 660.29m-217.03 0a217.03 217.03 0 1 0 434.06 0 217.03 217.03 0 1 0-434.06 0Z" fill="#FFEDD5" p-id="1659"></path><path d="M1028.41666666 897.5l-85.27-85.28c78-93.53 74.19-232.72-13.56-320.47-92.92-92.92-244.17-92.92-337.09 0a238.25 238.25 0 0 0 168.55 406.79c54.25 0 107.91-19.44 151.93-56.15l85.27 85.28a21.33 21.33 0 0 0 30.17-30.17zM622.66666666 798.67a195.69 195.69 0 0 1 276.75-276.75c76.29 76.29 76.29 200.46 0 276.75S698.99666666 875 622.66666666 798.67z" fill="#FFA32B" p-id="1660"></path></svg>