<?xml version="1.0" standalone="no"?><!DOCTYPE svg PUBLIC "-//W3C//DTD SVG 1.1//EN" "http://www.w3.org/Graphics/SVG/1.1/DTD/svg11.dtd"><svg t="1772157497721" class="icon" viewBox="0 0 1024 1024" version="1.1" xmlns="http://www.w3.org/2000/svg" p-id="1542" xmlns:xlink="http://www.w3.org/1999/xlink" width="200" height="200"><path d="M513.81274414 513.64794922h-111.23657227c-0.98876953 0-1.81274414 0-2.80151367-0.16479492-0.98876953-0.16479492-1.81274414-0.16479492-2.63671875-0.32958985s-1.81274414-0.32958984-2.63671875-0.65917968-1.64794922-0.49438477-2.63671875-0.98876954c-0.82397461-0.32958984-1.64794922-0.65917969-2.47192383-1.15356445-0.82397461-0.49438477-1.64794922-0.82397461-2.3071289-1.4831543-0.82397461-0.49438477-1.4831543-0.98876953-2.14233399-1.64794921s-1.31835938-1.15356445-1.97753906-1.81274415c-0.65917969-0.65917969-1.31835938-1.31835938-1.81274414-1.97753906-0.65917969-0.65917969-1.15356445-1.4831543-1.64794922-2.14233398-0.49438477-0.82397461-0.98876953-1.4831543-1.48315429-2.30712891-0.49438477-0.82397461-0.82397461-1.64794922-1.15356446-2.47192383-0.32958984-0.82397461-0.65917969-1.64794922-0.98876953-2.63671875s-0.49438477-1.81274414-0.65917969-2.63671875c-0.16479492-0.82397461-0.32958984-1.81274414-0.32958984-2.63671875-0.16479492-0.98876953-0.16479492-1.81274414-0.16479492-2.80151367 0-0.98876953 0-1.81274414 0.16479492-2.80151367 0.16479492-0.98876953 0.16479492-1.81274414 0.32958984-2.63671875s0.32958984-1.81274414 0.65917969-2.63671875 0.49438477-1.64794922 0.98876953-2.63671875c0.32958984-0.82397461 0.65917969-1.64794922 1.15356446-2.47192383s0.82397461-1.64794922 1.48315429-2.3071289 0.98876953-1.4831543 1.64794922-2.14233399 1.15356445-1.31835938 1.81274414-1.97753906c0.65917969-0.65917969 1.31835938-1.31835938 1.97753906-1.81274414 0.65917969-0.65917969 1.4831543-1.15356445 2.14233399-1.64794922s1.4831543-0.98876953 2.3071289-1.4831543c0.82397461-0.49438477 1.64794922-0.82397461 2.47192383-1.15356445 0.82397461-0.32958984 1.64794922-0.65917969 2.63671875-0.98876953 0.82397461-0.32958984 1.81274414-0.49438477 2.63671875-0.65917969 0.82397461-0.16479492 1.81274414-0.32958984 2.63671875-0.32958984 0.98876953-0.16479492 1.81274414-0.16479492 2.80151367-0.16479492h111.23657227c0.98876953 0 1.81274414 0 2.80151367 0.16479492 0.98876953 0.16479492 1.81274414 0.16479492 2.63671875 0.32958984s1.81274414 0.32958984 2.63671875 0.65917969 1.64794922 0.49438477 2.63671875 0.98876953c0.82397461 0.32958984 1.64794922 0.65917969 2.47192383 1.15356445 0.82397461 0.49438477 1.64794922 0.82397461 2.30712891 1.4831543s1.4831543 0.98876953 2.14233398 1.64794922 1.31835938 1.15356445 1.97753906 1.81274414c0.65917969 0.65917969 1.31835938 1.31835938 1.81274414 1.97753906 0.65917969 0.65917969 1.15356445 1.4831543 1.64794922 2.14233399 0.49438477 0.82397461 0.98876953 1.4831543 1.4831543 2.3071289 0.49438477 0.82397461 0.82397461 1.64794922 1.15356445 2.47192383 0.32958984 0.82397461 0.65917969 1.64794922 0.98876953 2.63671875 0.32958984 0.82397461 0.49438477 1.81274414 0.65917969 2.63671875 0.16479492 0.82397461 0.32958984 1.81274414 0.32958985 2.63671875 0.16479492 0.98876953 0.16479492 1.81274414 0.16479492 2.80151367 0 0.98876953 0 1.81274414-0.16479492 2.80151367-0.16479492 0.98876953-0.16479492 1.81274414-0.32958985 2.63671875s-0.32958984 1.81274414-0.65917969 2.63671875-0.49438477 1.64794922-0.98876953 2.63671875c-0.32958984 0.82397461-0.65917969 1.64794922-1.15356445 2.47192383-0.49438477 0.82397461-0.82397461 1.64794922-1.4831543 2.30712891-0.49438477 0.82397461-0.98876953 1.4831543-1.64794922 2.14233398s-1.15356445 1.31835938-1.81274414 1.97753907c-0.65917969 0.65917969-1.31835938 1.31835938-1.97753906 1.81274414-0.65917969 0.65917969-1.4831543 1.15356445-2.14233398 1.64794921-0.82397461 0.49438477-1.4831543 0.98876953-2.30712891 1.4831543-0.82397461 0.49438477-1.64794922 0.82397461-2.47192383 1.15356445-0.82397461 0.32958984-1.64794922 0.65917969-2.63671875 0.98876954-0.82397461 0.32958984-1.81274414 0.49438477-2.63671875 0.65917968-0.82397461 0.16479492-1.81274414 0.32958984-2.63671875 0.32958985-0.98876953 0.16479492-1.81274414 0.16479492-2.80151367 0.16479492z m-278.0090332 0c-1.4831543 0-2.80151367-0.16479492-4.28466797-0.32958985-1.4831543-0.16479492-2.80151367-0.49438477-4.11987305-0.98876953s-2.63671875-0.98876953-3.95507812-1.64794922c-1.31835938-0.65917969-2.47192383-1.31835938-3.62548828-2.14233398-1.15356445-0.82397461-2.30712891-1.81274414-3.29589844-2.80151367-0.98876953-0.98876953-1.97753906-2.14233398-2.80151367-3.13110352-0.82397461-1.15356445-1.64794922-2.30712891-2.30712891-3.62548828-0.65917969-1.31835938-1.31835938-2.63671875-1.64794922-3.95507812-0.49438477-1.31835938-0.82397461-2.80151367-1.15356445-4.11987305s-0.49438477-2.80151367-0.49438477-4.28466797 0-2.80151367 0.16479492-4.28466797c0.16479492-1.4831543 0.49438477-2.80151367 0.82397461-4.11987304s0.82397461-2.63671875 1.4831543-3.95507813c0.65917969-1.31835938 1.31835938-2.47192383 2.14233398-3.7902832 0.82397461-1.15356445 1.64794922-2.30712891 2.63671875-3.29589844 0.98876953-0.98876953 1.97753906-1.97753906 3.13110352-2.96630859l111.89575195-89.48364258-111.89575195-89.48364258c-0.65917969-0.49438477-1.31835938-1.15356445-1.97753906-1.81274414-0.65917969-0.65917969-1.31835938-1.31835938-1.81274414-1.97753906-0.65917969-0.65917969-1.15356445-1.4831543-1.64794922-2.14233399-0.49438477-0.82397461-0.98876953-1.4831543-1.4831543-2.3071289s-0.82397461-1.64794922-1.15356445-2.47192383c-0.32958984-0.82397461-0.65917969-1.64794922-0.98876953-2.63671875-0.32958984-0.82397461-0.49438477-1.81274414-0.65917969-2.63671875-0.16479492-0.82397461-0.32958984-1.81274414-0.49438477-2.63671875-0.16479492-0.82397461-0.16479492-1.81274414-0.16479492-2.80151367 0-0.98876953 0-1.81274414 0.16479492-2.80151368 0-0.98876953 0.16479492-1.81274414 0.32958985-2.63671875s0.32958984-1.81274414 0.65917969-2.63671875 0.49438477-1.81274414 0.8239746-2.63671875 0.65917969-1.64794922 1.15356446-2.47192382c0.49438477-0.82397461 0.82397461-1.64794922 1.31835937-2.30712891 0.49438477-0.82397461 0.98876953-1.4831543 1.64794922-2.14233398s1.15356445-1.31835938 1.81274414-1.97753907c0.65917969-0.65917969 1.31835938-1.31835938 1.97753906-1.81274414 0.65917969-0.65917969 1.4831543-1.15356445 2.14233399-1.64794922 0.82397461-0.49438477 1.4831543-0.98876953 2.30712891-1.48315429 0.82397461-0.49438477 1.64794922-0.82397461 2.47192382-1.15356446 0.82397461-0.32958984 1.64794922-0.65917969 2.63671875-0.98876953 0.82397461-0.32958984 1.81274414-0.49438477 2.63671875-0.65917969 0.82397461-0.16479492 1.81274414-0.32958984 2.63671875-0.49438476 0.82397461-0.16479492 1.81274414-0.16479492 2.80151368-0.16479492 0.98876953 0 1.81274414 0 2.80151367 0.16479492 0.98876953 0 1.81274414 0.16479492 2.63671875 0.32958984s1.81274414 0.32958984 2.63671875 0.65917969 1.81274414 0.49438477 2.63671875 0.82397461 1.64794922 0.65917969 2.47192383 1.15356445c0.82397461 0.49438477 1.64794922 0.82397461 2.3071289 1.31835938 0.82397461 0.49438477 1.4831543 0.98876953 2.14233399 1.64794922l139.08691406 111.23657226c0.82397461 0.65917969 1.64794922 1.31835938 2.3071289 2.14233399 0.65917969 0.65917969 1.4831543 1.4831543 2.14233399 2.3071289 0.65917969 0.82397461 1.31835938 1.64794922 1.81274414 2.47192383 0.49438477 0.82397461 0.98876953 1.81274414 1.4831543 2.80151367 0.49438477 0.98876953 0.82397461 1.97753906 1.15356445 2.80151367 0.32958984 0.98876953 0.65917969 1.97753906 0.82397461 2.9663086 0.16479492 0.98876953 0.32958984 1.97753906 0.49438476 3.13110351 0.16479492 0.98876953 0.16479492 2.14233398 0.16479493 3.13110352 0 0.98876953 0 2.14233398-0.16479493 3.13110352-0.16479492 0.98876953-0.32958984 1.97753906-0.49438476 3.13110351-0.16479492 0.98876953-0.49438477 1.97753906-0.82397461 2.96630859-0.32958984 0.98876953-0.65917969 1.97753906-1.15356445 2.80151368-0.49438477 0.98876953-0.98876953 1.81274414-1.4831543 2.80151367-0.49438477 0.82397461-1.15356445 1.64794922-1.81274414 2.47192383s-1.31835938 1.64794922-2.14233399 2.3071289c-0.65917969 0.65917969-1.4831543 1.4831543-2.3071289 2.14233399L253.27197266 507.88012695c-2.47192383 1.97753906-5.10864258 3.46069336-8.2397461 4.44946289-2.96630859 0.82397461-6.09741211 1.31835938-9.22851562 1.31835938zM819.67211914 124.40234375H207.95336914c-1.81274414 0-3.62548828 0-5.43823242 0.16479492s-3.62548828 0.16479492-5.43823242 0.32958985c-1.81274414 0.16479492-3.62548828 0.32958984-5.43823243 0.65917968l-5.43823242 0.98876953c-1.81274414 0.32958984-3.62548828 0.82397461-5.2734375 1.15356446-1.81274414 0.49438477-3.46069336 0.98876953-5.2734375 1.48315429-1.81274414 0.49438477-3.46069336 1.15356445-5.10864258 1.64794922-1.64794922 0.65917969-3.46069336 1.31835938-5.10864257 1.97753907-1.64794922 0.65917969-3.29589844 1.4831543-4.94384766 2.14233398l-4.94384766 2.47192383c-1.64794922 0.82397461-3.13110352 1.81274414-4.77905273 2.63671875-1.4831543 0.98876953-3.13110352 1.97753906-4.61425781 2.96630859-1.4831543 0.98876953-2.96630859 1.97753906-4.44946289 3.13110352-1.4831543 1.15356445-2.96630859 2.14233398-4.28466797 3.29589843s-2.80151367 2.30712891-4.11987305 3.62548829-2.63671875 2.47192383-3.95507812 3.7902832-2.47192383 2.63671875-3.79028321 3.95507812c-1.15356445 1.31835938-2.47192383 2.80151367-3.62548828 4.11987305s-2.30712891 2.80151367-3.29589844 4.28466797c-1.15356445 1.4831543-2.14233398 2.96630859-3.13110351 4.44946289-0.98876953 1.4831543-1.97753906 3.13110352-2.9663086 4.61425781-0.98876953 1.4831543-1.81274414 3.13110352-2.63671875 4.77905274l-2.47192382 4.94384765c-0.82397461 1.64794922-1.4831543 3.29589844-2.14233399 4.94384766s-1.31835938 3.29589844-1.97753906 5.10864258c-0.65917969 1.64794922-1.15356445 3.46069336-1.64794922 5.10864258-0.49438477 1.81274414-0.98876953 3.46069336-1.4831543 5.2734375-0.49438477 1.81274414-0.82397461 3.46069336-1.15356445 5.2734375l-0.98876953 5.43823242c-0.32958984 1.81274414-0.49438477 3.62548828-0.65917969 5.43823242-0.16479492 1.81274414-0.32958984 3.62548828-0.32958984 5.43823242C96.71679687 231.84863281 96.71679687 233.66137695 96.71679687 235.63891602v556.18286132c0 1.81274414 0 3.62548828 0.16479493 5.43823243 0.16479492 1.81274414 0.16479492 3.62548828 0.32958984 5.43823242 0.16479492 1.81274414 0.32958984 3.62548828 0.65917969 5.43823242l0.98876953 5.43823242c0.32958984 1.81274414 0.82397461 3.62548828 1.15356445 5.2734375 0.49438477 1.81274414 0.98876953 3.46069336 1.4831543 5.2734375 0.49438477 1.81274414 1.15356445 3.46069336 1.64794922 5.10864258 0.65917969 1.64794922 1.31835938 3.46069336 1.97753906 5.10864258 0.65917969 1.64794922 1.4831543 3.29589844 2.14233399 4.94384765l2.47192382 4.94384766c0.82397461 1.64794922 1.81274414 3.13110352 2.63671875 4.77905273 0.98876953 1.4831543 1.97753906 3.13110352 2.9663086 4.61425782 0.98876953 1.4831543 1.97753906 2.96630859 3.13110351 4.44946289 1.15356445 1.4831543 2.14233398 2.96630859 3.29589844 4.28466797 1.15356445 1.4831543 2.30712891 2.80151367 3.62548828 4.11987304 1.15356445 1.31835938 2.47192383 2.63671875 3.7902832 3.95507813 1.31835938 1.31835938 2.63671875 2.47192383 3.95507813 3.7902832s2.80151367 2.47192383 4.11987305 3.62548828c1.4831543 1.15356445 2.80151367 2.30712891 4.28466797 3.29589844 1.4831543 1.15356445 2.96630859 2.14233398 4.44946289 3.13110352 1.4831543 0.98876953 3.13110352 1.97753906 4.61425781 2.96630859 1.4831543 0.98876953 3.13110352 1.81274414 4.77905273 2.63671875l4.94384766 2.47192383c1.64794922 0.82397461 3.29589844 1.4831543 4.94384766 2.14233398s3.29589844 1.31835938 5.10864257 1.97753906c1.64794922 0.65917969 3.46069336 1.15356445 5.10864258 1.64794922 1.81274414 0.49438477 3.46069336 0.98876953 5.2734375 1.4831543 1.81274414 0.49438477 3.46069336 0.82397461 5.2734375 1.15356445l5.43823242 0.98876953c1.81274414 0.32958984 3.62548828 0.49438477 5.43823243 0.65917969 1.81274414 0.16479492 3.62548828 0.32958984 5.43823242 0.32958985s3.62548828 0.16479492 5.43823242 0.16479492h611.71875c1.81274414 0 3.62548828 0 5.43823242-0.16479492s3.62548828-0.16479492 5.43823242-0.32958985c1.81274414-0.16479492 3.62548828-0.32958984 5.43823242-0.65917969l5.43823243-0.98876953c1.81274414-0.32958984 3.62548828-0.82397461 5.2734375-1.15356445 1.81274414-0.49438477 3.46069336-0.98876953 5.2734375-1.4831543 1.81274414-0.49438477 3.46069336-1.15356445 5.10864257-1.64794922s3.46069336-1.31835938 5.10864258-1.97753906c1.64794922-0.65917969 3.29589844-1.4831543 4.94384766-2.14233398l4.94384766-2.47192383c1.64794922-0.82397461 3.13110352-1.81274414 4.77905273-2.63671875 1.4831543-0.98876953 3.13110352-1.97753906 4.61425781-2.96630859 1.4831543-0.98876953 2.96630859-1.97753906 4.44946289-3.13110352 1.4831543-1.15356445 2.96630859-2.14233398 4.28466797-3.29589844 1.4831543-1.15356445 2.80151367-2.30712891 4.11987305-3.62548828s2.63671875-2.47192383 3.95507812-3.7902832c1.31835938-1.31835938 2.47192383-2.63671875 3.79028321-3.95507813 1.15356445-1.31835938 2.47192383-2.80151367 3.62548828-4.11987304 1.15356445-1.4831543 2.30712891-2.80151367 3.29589844-4.28466797 1.15356445-1.4831543 2.14233398-2.96630859 3.13110351-4.44946289 0.98876953-1.4831543 1.97753906-3.13110352 2.96630859-4.61425782 0.98876953-1.4831543 1.81274414-3.13110352 2.63671875-4.77905273l2.47192383-4.94384766c0.82397461-1.64794922 1.4831543-3.29589844 2.14233399-4.94384765s1.31835938-3.29589844 1.97753906-5.10864258c0.65917969-1.64794922 1.15356445-3.46069336 1.64794922-5.10864258s0.98876953-3.46069336 1.4831543-5.2734375c0.49438477-1.81274414 0.82397461-3.46069336 1.15356445-5.2734375l0.98876953-5.43823242c0.32958984-1.81274414 0.49438477-3.62548828 0.65917969-5.43823242 0.16479492-1.81274414 0.32958984-3.62548828 0.32958984-5.43823242 0.16479492-1.81274414 0.16479492-3.62548828 0.16479492-5.43823243V235.63891602c0-1.81274414 0-3.62548828-0.16479492-5.43823243-0.16479492-1.81274414-0.16479492-3.62548828-0.32958984-5.43823242-0.16479492-1.81274414-0.32958984-3.62548828-0.65917969-5.43823242l-0.98876953-5.43823242c-0.32958984-1.81274414-0.82397461-3.62548828-1.15356445-5.2734375-0.49438477-1.81274414-0.98876953-3.46069336-1.4831543-5.2734375-0.49438477-1.81274414-1.15356445-3.46069336-1.64794922-5.10864258-0.65917969-1.64794922-1.31835938-3.46069336-1.97753906-5.10864258-0.65917969-1.64794922-1.4831543-3.29589844-2.14233399-4.94384765l-2.47192383-4.94384766c-0.82397461-1.64794922-1.81274414-3.13110352-2.63671875-4.77905274-0.98876953-1.4831543-1.97753906-3.13110352-2.96630859-4.61425781-0.98876953-1.4831543-1.97753906-2.96630859-3.13110351-4.44946289-1.15356445-1.4831543-2.14233398-2.96630859-3.29589844-4.28466797-1.15356445-1.4831543-2.30712891-2.80151367-3.62548828-4.11987304-1.15356445-1.31835938-2.47192383-2.63671875-3.79028321-3.95507813s-2.63671875-2.47192383-3.95507812-3.7902832c-1.31835938-1.15356445-2.80151367-2.47192383-4.11987305-3.62548828-1.4831543-1.15356445-2.80151367-2.30712891-4.28466797-3.29589844s-2.96630859-2.14233398-4.44946289-3.13110352c-1.4831543-0.98876953-3.13110352-1.97753906-4.61425781-2.96630859-1.4831543-0.98876953-3.13110352-1.81274414-4.77905273-2.63671875l-4.94384766-2.47192383c-1.64794922-0.82397461-3.29589844-1.4831543-4.94384766-2.14233398s-3.29589844-1.31835938-5.10864258-1.97753907c-1.64794922-0.65917969-3.46069336-1.15356445-5.10864257-1.64794921-1.81274414-0.49438477-3.46069336-0.98876953-5.2734375-1.4831543-1.81274414-0.49438477-3.46069336-0.82397461-5.2734375-1.15356445l-5.43823243-0.98876954c-1.81274414-0.32958984-3.62548828-0.49438477-5.43823242-0.65917968-1.81274414-0.16479492-3.62548828-0.32958984-5.43823242-0.32958985s-3.29589844-0.32958984-5.2734375-0.32958984z" p-id="1543"></path></svg>