<?xml version="1.0" standalone="no"?><!DOCTYPE svg PUBLIC "-//W3C//DTD SVG 1.1//EN" "http://www.w3.org/Graphics/SVG/1.1/DTD/svg11.dtd"><svg t="1770703744311" class="icon" viewBox="0 0 1142 1024" version="1.1" xmlns="http://www.w3.org/2000/svg" p-id="2099" xmlns:xlink="http://www.w3.org/1999/xlink" width="223.046875" height="200"><path d="M1018.77884634 122.57692275v778.84615449H142.57692275V122.57692275h876.20192359m0-32.45192275H142.57692275a32.45192275 32.45192275 0 0 0-32.45192275 32.45192276v778.84615449a32.45192275 32.45192275 0 0 0 32.45192276 32.45192275h876.20192358a32.45192275 32.45192275 0 0 0 32.45192277-32.45192275V122.57692275a32.45192275 32.45192275 0 0 0-32.45192277-32.45192275z" fill="#4D4D4D" p-id="2100"></path><path d="M142.57692275 414.64423089h876.20192359v32.45192277H142.57692275zM142.57692275 576.90384634h876.20192359v32.45192277H142.57692275zM142.57692275 739.16346179h876.20192359v32.45192276H142.57692275zM142.57692275 252.38461545h876.20192359v32.45192276H142.57692275z" fill="#B3B3B3" p-id="2101"></path><path d="M369.74038454 252.38461545v649.0384618H337.28846179V252.38461545zM596.90384634 252.38461545v649.0384618h-32.45192358V252.38461545zM824.06730732 252.38461545v649.0384618h-32.45192278V252.38461545z" fill="#B3B3B3" p-id="2102"></path><path d="M142.57692275 122.57692275h876.20192359v129.8076927H142.57692275z" fill="#05AFC8" p-id="2103"></path></svg>