<?xml version="1.0" standalone="no"?><!DOCTYPE svg PUBLIC "-//W3C//DTD SVG 1.1//EN" "http://www.w3.org/Graphics/SVG/1.1/DTD/svg11.dtd"><svg t="1770653469685" class="icon" viewBox="0 0 1024 1024" version="1.1" xmlns="http://www.w3.org/2000/svg" p-id="1916" xmlns:xlink="http://www.w3.org/1999/xlink" width="200" height="200"><path d="M513.93359375 513.7578125h-118.65234375c-1.0546875 0-1.93359375 0-2.98828125-0.17578125-1.0546875-0.17578125-1.93359375-0.17578125-2.8125-0.3515625s-1.93359375-0.3515625-2.8125-0.703125-1.7578125-0.52734375-2.8125-1.0546875c-0.87890625-0.3515625-1.7578125-0.703125-2.63671875-1.23046875-0.87890625-0.52734375-1.7578125-0.87890625-2.4609375-1.58203125-0.87890625-0.52734375-1.58203125-1.0546875-2.28515625-1.7578125s-1.40625-1.23046875-2.109375-1.93359375c-0.703125-0.703125-1.40625-1.40625-1.93359375-2.109375-0.703125-0.703125-1.23046875-1.58203125-1.7578125-2.28515625-0.52734375-0.87890625-1.0546875-1.58203125-1.58203125-2.4609375-0.52734375-0.87890625-0.87890625-1.7578125-1.23046875-2.63671875-0.3515625-0.87890625-0.703125-1.7578125-1.0546875-2.8125s-0.52734375-1.93359375-0.703125-2.8125c-0.17578125-0.87890625-0.3515625-1.93359375-0.3515625-2.8125-0.17578125-1.0546875-0.17578125-1.93359375-0.17578125-2.98828125 0-1.0546875 0-1.93359375 0.17578125-2.98828125 0.17578125-1.0546875 0.17578125-1.93359375 0.3515625-2.8125s0.3515625-1.93359375 0.703125-2.8125 0.52734375-1.7578125 1.0546875-2.8125c0.3515625-0.87890625 0.703125-1.7578125 1.23046875-2.63671875s0.87890625-1.7578125 1.58203125-2.4609375 1.0546875-1.58203125 1.7578125-2.28515625 1.23046875-1.40625 1.93359375-2.109375c0.703125-0.703125 1.40625-1.40625 2.109375-1.93359375 0.703125-0.703125 1.58203125-1.23046875 2.28515625-1.7578125s1.58203125-1.0546875 2.4609375-1.58203125c0.87890625-0.52734375 1.7578125-0.87890625 2.63671875-1.23046875 0.87890625-0.3515625 1.7578125-0.703125 2.8125-1.0546875 0.87890625-0.3515625 1.93359375-0.52734375 2.8125-0.703125 0.87890625-0.17578125 1.93359375-0.3515625 2.8125-0.3515625 1.0546875-0.17578125 1.93359375-0.17578125 2.98828125-0.17578125h118.65234375c1.0546875 0 1.93359375 0 2.98828125 0.17578125 1.0546875 0.17578125 1.93359375 0.17578125 2.8125 0.3515625s1.93359375 0.3515625 2.8125 0.703125 1.7578125 0.52734375 2.8125 1.0546875c0.87890625 0.3515625 1.7578125 0.703125 2.63671875 1.23046875 0.87890625 0.52734375 1.7578125 0.87890625 2.4609375 1.58203125s1.58203125 1.0546875 2.28515625 1.7578125 1.40625 1.23046875 2.109375 1.93359375c0.703125 0.703125 1.40625 1.40625 1.93359375 2.109375 0.703125 0.703125 1.23046875 1.58203125 1.7578125 2.28515625 0.52734375 0.87890625 1.0546875 1.58203125 1.58203125 2.4609375 0.52734375 0.87890625 0.87890625 1.7578125 1.23046875 2.63671875 0.3515625 0.87890625 0.703125 1.7578125 1.0546875 2.8125 0.3515625 0.87890625 0.52734375 1.93359375 0.703125 2.8125 0.17578125 0.87890625 0.3515625 1.93359375 0.3515625 2.8125 0.17578125 1.0546875 0.17578125 1.93359375 0.17578125 2.98828125 0 1.0546875 0 1.93359375-0.17578125 2.98828125-0.17578125 1.0546875-0.17578125 1.93359375-0.3515625 2.8125s-0.3515625 1.93359375-0.703125 2.8125-0.52734375 1.7578125-1.0546875 2.8125c-0.3515625 0.87890625-0.703125 1.7578125-1.23046875 2.63671875-0.52734375 0.87890625-0.87890625 1.7578125-1.58203125 2.4609375-0.52734375 0.87890625-1.0546875 1.58203125-1.7578125 2.28515625s-1.23046875 1.40625-1.93359375 2.109375c-0.703125 0.703125-1.40625 1.40625-2.109375 1.93359375-0.703125 0.703125-1.58203125 1.23046875-2.28515625 1.7578125-0.87890625 0.52734375-1.58203125 1.0546875-2.4609375 1.58203125-0.87890625 0.52734375-1.7578125 0.87890625-2.63671875 1.23046875-0.87890625 0.3515625-1.7578125 0.703125-2.8125 1.0546875-0.87890625 0.3515625-1.93359375 0.52734375-2.8125 0.703125-0.87890625 0.17578125-1.93359375 0.3515625-2.8125 0.3515625-1.0546875 0.17578125-1.93359375 0.17578125-2.98828125 0.17578125z m-296.54296875 0c-1.58203125 0-2.98828125-0.17578125-4.5703125-0.3515625-1.58203125-0.17578125-2.98828125-0.52734375-4.39453125-1.0546875s-2.8125-1.0546875-4.21875-1.7578125c-1.40625-0.703125-2.63671875-1.40625-3.8671875-2.28515625-1.23046875-0.87890625-2.4609375-1.93359375-3.515625-2.98828125-1.0546875-1.0546875-2.109375-2.28515625-2.98828125-3.33984375-0.87890625-1.23046875-1.7578125-2.4609375-2.4609375-3.8671875-0.703125-1.40625-1.40625-2.8125-1.7578125-4.21875-0.52734375-1.40625-0.87890625-2.98828125-1.23046875-4.39453125s-0.52734375-2.98828125-0.52734375-4.5703125 0-2.98828125 0.17578125-4.5703125c0.17578125-1.58203125 0.52734375-2.98828125 0.87890625-4.39453125s0.87890625-2.8125 1.58203125-4.21875c0.703125-1.40625 1.40625-2.63671875 2.28515625-4.04296875 0.87890625-1.23046875 1.7578125-2.4609375 2.8125-3.515625 1.0546875-1.0546875 2.109375-2.109375 3.33984375-3.1640625l119.35546875-95.44921875-119.35546875-95.44921875c-0.703125-0.52734375-1.40625-1.23046875-2.109375-1.93359375-0.703125-0.703125-1.40625-1.40625-1.93359375-2.109375-0.703125-0.703125-1.23046875-1.58203125-1.7578125-2.28515625-0.52734375-0.87890625-1.0546875-1.58203125-1.58203125-2.4609375s-0.87890625-1.7578125-1.23046875-2.63671875c-0.3515625-0.87890625-0.703125-1.7578125-1.0546875-2.8125-0.3515625-0.87890625-0.52734375-1.93359375-0.703125-2.8125-0.17578125-0.87890625-0.3515625-1.93359375-0.52734375-2.8125-0.17578125-0.87890625-0.17578125-1.93359375-0.17578125-2.98828125 0-1.0546875 0-1.93359375 0.17578125-2.98828125 0-1.0546875 0.17578125-1.93359375 0.3515625-2.8125s0.3515625-1.93359375 0.703125-2.8125 0.52734375-1.93359375 0.87890625-2.8125 0.703125-1.7578125 1.23046875-2.63671875c0.52734375-0.87890625 0.87890625-1.7578125 1.40625-2.4609375 0.52734375-0.87890625 1.0546875-1.58203125 1.7578125-2.28515625s1.23046875-1.40625 1.93359375-2.109375c0.703125-0.703125 1.40625-1.40625 2.109375-1.93359375 0.703125-0.703125 1.58203125-1.23046875 2.28515625-1.7578125 0.87890625-0.52734375 1.58203125-1.0546875 2.4609375-1.58203125 0.87890625-0.52734375 1.7578125-0.87890625 2.63671875-1.23046875 0.87890625-0.3515625 1.7578125-0.703125 2.8125-1.0546875 0.87890625-0.3515625 1.93359375-0.52734375 2.8125-0.703125 0.87890625-0.17578125 1.93359375-0.3515625 2.8125-0.52734375 0.87890625-0.17578125 1.93359375-0.17578125 2.98828125-0.17578125 1.0546875 0 1.93359375 0 2.98828125 0.17578125 1.0546875 0 1.93359375 0.17578125 2.8125 0.3515625s1.93359375 0.3515625 2.8125 0.703125 1.93359375 0.52734375 2.8125 0.87890625 1.7578125 0.703125 2.63671875 1.23046875c0.87890625 0.52734375 1.7578125 0.87890625 2.4609375 1.40625 0.87890625 0.52734375 1.58203125 1.0546875 2.28515625 1.7578125l148.359375 118.65234375c0.87890625 0.703125 1.7578125 1.40625 2.4609375 2.28515625 0.703125 0.703125 1.58203125 1.58203125 2.28515625 2.4609375 0.703125 0.87890625 1.40625 1.7578125 1.93359375 2.63671875 0.52734375 0.87890625 1.0546875 1.93359375 1.58203125 2.98828125 0.52734375 1.0546875 0.87890625 2.109375 1.23046875 2.98828125 0.3515625 1.0546875 0.703125 2.109375 0.87890625 3.1640625 0.17578125 1.0546875 0.3515625 2.109375 0.52734375 3.33984375 0.17578125 1.0546875 0.17578125 2.28515625 0.17578125 3.33984375 0 1.0546875 0 2.28515625-0.17578125 3.33984375-0.17578125 1.0546875-0.3515625 2.109375-0.52734375 3.33984375-0.17578125 1.0546875-0.52734375 2.109375-0.87890625 3.1640625-0.3515625 1.0546875-0.703125 2.109375-1.23046875 2.98828125-0.52734375 1.0546875-1.0546875 1.93359375-1.58203125 2.98828125-0.52734375 0.87890625-1.23046875 1.7578125-1.93359375 2.63671875s-1.40625 1.7578125-2.28515625 2.4609375c-0.703125 0.703125-1.58203125 1.58203125-2.4609375 2.28515625L236.0234375 507.60546875c-2.63671875 2.109375-5.44921875 3.69140625-8.7890625 4.74609375-3.1640625 0.87890625-6.50390625 1.40625-9.84375 1.40625zM840.18359375 98.5625H187.68359375c-1.93359375 0-3.8671875 0-5.80078125 0.17578125s-3.8671875 0.17578125-5.80078125 0.3515625c-1.93359375 0.17578125-3.8671875 0.3515625-5.80078125 0.703125l-5.80078125 1.0546875c-1.93359375 0.3515625-3.8671875 0.87890625-5.625 1.23046875-1.93359375 0.52734375-3.69140625 1.0546875-5.625 1.58203125-1.93359375 0.52734375-3.69140625 1.23046875-5.44921875 1.7578125-1.7578125 0.703125-3.69140625 1.40625-5.44921875 2.109375-1.7578125 0.703125-3.515625 1.58203125-5.2734375 2.28515625l-5.2734375 2.63671875c-1.7578125 0.87890625-3.33984375 1.93359375-5.09765625 2.8125-1.58203125 1.0546875-3.33984375 2.109375-4.921875 3.1640625-1.58203125 1.0546875-3.1640625 2.109375-4.74609375 3.33984375-1.58203125 1.23046875-3.1640625 2.28515625-4.5703125 3.515625s-2.98828125 2.4609375-4.39453125 3.8671875-2.8125 2.63671875-4.21875 4.04296875-2.63671875 2.8125-4.04296875 4.21875c-1.23046875 1.40625-2.63671875 2.98828125-3.8671875 4.39453125s-2.4609375 2.98828125-3.515625 4.5703125c-1.23046875 1.58203125-2.28515625 3.1640625-3.33984375 4.74609375-1.0546875 1.58203125-2.109375 3.33984375-3.1640625 4.921875-1.0546875 1.58203125-1.93359375 3.33984375-2.8125 5.09765625l-2.63671875 5.2734375c-0.87890625 1.7578125-1.58203125 3.515625-2.28515625 5.2734375s-1.40625 3.515625-2.109375 5.44921875c-0.703125 1.7578125-1.23046875 3.69140625-1.7578125 5.44921875-0.52734375 1.93359375-1.0546875 3.69140625-1.58203125 5.625-0.52734375 1.93359375-0.87890625 3.69140625-1.23046875 5.625l-1.0546875 5.80078125c-0.3515625 1.93359375-0.52734375 3.8671875-0.703125 5.80078125-0.17578125 1.93359375-0.3515625 3.8671875-0.3515625 5.80078125C69.03125 213.171875 69.03125 215.10546875 69.03125 217.21484375v593.26171875c0 1.93359375 0 3.8671875 0.17578125 5.80078125 0.17578125 1.93359375 0.17578125 3.8671875 0.3515625 5.80078125 0.17578125 1.93359375 0.3515625 3.8671875 0.703125 5.80078125l1.0546875 5.80078125c0.3515625 1.93359375 0.87890625 3.8671875 1.23046875 5.625 0.52734375 1.93359375 1.0546875 3.69140625 1.58203125 5.625 0.52734375 1.93359375 1.23046875 3.69140625 1.7578125 5.44921875 0.703125 1.7578125 1.40625 3.69140625 2.109375 5.44921875 0.703125 1.7578125 1.58203125 3.515625 2.28515625 5.2734375l2.63671875 5.2734375c0.87890625 1.7578125 1.93359375 3.33984375 2.8125 5.09765625 1.0546875 1.58203125 2.109375 3.33984375 3.1640625 4.921875 1.0546875 1.58203125 2.109375 3.1640625 3.33984375 4.74609375 1.23046875 1.58203125 2.28515625 3.1640625 3.515625 4.5703125 1.23046875 1.58203125 2.4609375 2.98828125 3.8671875 4.39453125 1.23046875 1.40625 2.63671875 2.8125 4.04296875 4.21875 1.40625 1.40625 2.8125 2.63671875 4.21875 4.04296875s2.98828125 2.63671875 4.39453125 3.8671875c1.58203125 1.23046875 2.98828125 2.4609375 4.5703125 3.515625 1.58203125 1.23046875 3.1640625 2.28515625 4.74609375 3.33984375 1.58203125 1.0546875 3.33984375 2.109375 4.921875 3.1640625 1.58203125 1.0546875 3.33984375 1.93359375 5.09765625 2.8125l5.2734375 2.63671875c1.7578125 0.87890625 3.515625 1.58203125 5.2734375 2.28515625s3.515625 1.40625 5.44921875 2.109375c1.7578125 0.703125 3.69140625 1.23046875 5.44921875 1.7578125 1.93359375 0.52734375 3.69140625 1.0546875 5.625 1.58203125 1.93359375 0.52734375 3.69140625 0.87890625 5.625 1.23046875l5.80078125 1.0546875c1.93359375 0.3515625 3.8671875 0.52734375 5.80078125 0.703125 1.93359375 0.17578125 3.8671875 0.3515625 5.80078125 0.3515625s3.8671875 0.17578125 5.80078125 0.17578125h652.5c1.93359375 0 3.8671875 0 5.80078125-0.17578125s3.8671875-0.17578125 5.80078125-0.3515625c1.93359375-0.17578125 3.8671875-0.3515625 5.80078125-0.703125l5.80078125-1.0546875c1.93359375-0.3515625 3.8671875-0.87890625 5.625-1.23046875 1.93359375-0.52734375 3.69140625-1.0546875 5.625-1.58203125 1.93359375-0.52734375 3.69140625-1.23046875 5.44921875-1.7578125s3.69140625-1.40625 5.44921875-2.109375c1.7578125-0.703125 3.515625-1.58203125 5.2734375-2.28515625l5.2734375-2.63671875c1.7578125-0.87890625 3.33984375-1.93359375 5.09765625-2.8125 1.58203125-1.0546875 3.33984375-2.109375 4.921875-3.1640625 1.58203125-1.0546875 3.1640625-2.109375 4.74609375-3.33984375 1.58203125-1.23046875 3.1640625-2.28515625 4.5703125-3.515625 1.58203125-1.23046875 2.98828125-2.4609375 4.39453125-3.8671875s2.8125-2.63671875 4.21875-4.04296875c1.40625-1.40625 2.63671875-2.8125 4.04296875-4.21875 1.23046875-1.40625 2.63671875-2.98828125 3.8671875-4.39453125 1.23046875-1.58203125 2.4609375-2.98828125 3.515625-4.5703125 1.23046875-1.58203125 2.28515625-3.1640625 3.33984375-4.74609375 1.0546875-1.58203125 2.109375-3.33984375 3.1640625-4.921875 1.0546875-1.58203125 1.93359375-3.33984375 2.8125-5.09765625l2.63671875-5.2734375c0.87890625-1.7578125 1.58203125-3.515625 2.28515625-5.2734375s1.40625-3.515625 2.109375-5.44921875c0.703125-1.7578125 1.23046875-3.69140625 1.7578125-5.44921875s1.0546875-3.69140625 1.58203125-5.625c0.52734375-1.93359375 0.87890625-3.69140625 1.23046875-5.625l1.0546875-5.80078125c0.3515625-1.93359375 0.52734375-3.8671875 0.703125-5.80078125 0.17578125-1.93359375 0.3515625-3.8671875 0.3515625-5.80078125 0.17578125-1.93359375 0.17578125-3.8671875 0.17578125-5.80078125V217.21484375c0-1.93359375 0-3.8671875-0.17578125-5.80078125-0.17578125-1.93359375-0.17578125-3.8671875-0.3515625-5.80078125-0.17578125-1.93359375-0.3515625-3.8671875-0.703125-5.80078125l-1.0546875-5.80078125c-0.3515625-1.93359375-0.87890625-3.8671875-1.23046875-5.625-0.52734375-1.93359375-1.0546875-3.69140625-1.58203125-5.625-0.52734375-1.93359375-1.23046875-3.69140625-1.7578125-5.44921875-0.703125-1.7578125-1.40625-3.69140625-2.109375-5.44921875-0.703125-1.7578125-1.58203125-3.515625-2.28515625-5.2734375l-2.63671875-5.2734375c-0.87890625-1.7578125-1.93359375-3.33984375-2.8125-5.09765625-1.0546875-1.58203125-2.109375-3.33984375-3.1640625-4.921875-1.0546875-1.58203125-2.109375-3.1640625-3.33984375-4.74609375-1.23046875-1.58203125-2.28515625-3.1640625-3.515625-4.5703125-1.23046875-1.58203125-2.4609375-2.98828125-3.8671875-4.39453125-1.23046875-1.40625-2.63671875-2.8125-4.04296875-4.21875s-2.8125-2.63671875-4.21875-4.04296875c-1.40625-1.23046875-2.98828125-2.63671875-4.39453125-3.8671875-1.58203125-1.23046875-2.98828125-2.4609375-4.5703125-3.515625s-3.1640625-2.28515625-4.74609375-3.33984375c-1.58203125-1.0546875-3.33984375-2.109375-4.921875-3.1640625-1.58203125-1.0546875-3.33984375-1.93359375-5.09765625-2.8125l-5.2734375-2.63671875c-1.7578125-0.87890625-3.515625-1.58203125-5.2734375-2.28515625s-3.515625-1.40625-5.44921875-2.109375c-1.7578125-0.703125-3.69140625-1.23046875-5.44921875-1.7578125-1.93359375-0.52734375-3.69140625-1.0546875-5.625-1.58203125-1.93359375-0.52734375-3.69140625-0.87890625-5.625-1.23046875l-5.80078125-1.0546875c-1.93359375-0.3515625-3.8671875-0.52734375-5.80078125-0.703125-1.93359375-0.17578125-3.8671875-0.3515625-5.80078125-0.3515625s-3.515625-0.3515625-5.625-0.3515625z" p-id="1917"></path></svg>