<?xml version="1.0" standalone="no"?><!DOCTYPE svg PUBLIC "-//W3C//DTD SVG 1.1//EN" "http://www.w3.org/Graphics/SVG/1.1/DTD/svg11.dtd"><svg t="1770703741021" class="icon" viewBox="0 0 1024 1024" version="1.1" xmlns="http://www.w3.org/2000/svg" p-id="1947" xmlns:xlink="http://www.w3.org/1999/xlink" width="200" height="200"><path d="M801.45066667 651.94666667h-131.75466667V546.13333333h131.75466667a34.13333333 34.13333333 0 0 0 0-68.26666666h-131.75466667v-53.248a34.13333333 34.13333333 0 0 0-68.26666667 0v53.248H408.91733333v-52.56533334a34.13333333 34.13333333 0 0 0-68.26666666 0v52.56533334H208.896a34.13333333 34.13333333 0 1 0 0 68.26666666h131.75466667v105.81333334H208.896a34.13333333 34.13333333 0 1 0 0 68.26666666h131.75466667v51.2a34.13333333 34.13333333 0 0 0 68.26666666 0v-51.2h192.512v50.51733334a34.13333333 34.13333333 0 0 0 68.26666667 0v-50.51733334h131.75466667a34.13333333 34.13333333 0 0 0 0-68.26666666z m-200.02133334 0H408.91733333V546.13333333h192.512zM307.2 253.26933333a34.13333333 34.13333333 0 0 0 34.13333333-34.13333333V107.86133333a34.13333333 34.13333333 0 0 0-68.26666666 0v111.27466667a34.13333333 34.13333333 0 0 0 34.13333333 34.13333333zM703.82933333 253.26933333a34.13333333 34.13333333 0 0 0 34.13333334-34.13333333V107.86133333a34.13333333 34.13333333 0 0 0-68.26666667 0v111.27466667a34.13333333 34.13333333 0 0 0 34.13333333 34.13333333z" fill="#7EDA2C" p-id="1948"></path><path d="M408.91733333 129.70666667h192.512v68.26666666H408.91733333z" fill="#6A81AE" p-id="1949"></path><path d="M806.22933333 129.70666667v68.26666666h58.02666667v105.81333334H146.09066667V197.97333333h58.02666666v-68.26666666H77.824v761.17333333h854.69866667V129.70666667zM146.09066667 822.61333333v-450.56h718.16533333v450.56z" fill="#6A81AE" p-id="1950"></path></svg>